<svg id="visual" viewBox="0 0 2000 300" width="2000" height="300" xmlns="http://www.w3.org/2000/svg" xmlns:xlink="http://www.w3.org/1999/xlink" version="1.1"><rect x="0" y="0" width="2000" height="300" fill="#2E2E2E"></rect><path d="M0 134L19.7 129.8C39.3 125.7 78.7 117.3 117.8 126.7C157 136 196 163 235.2 176C274.3 189 313.7 188 353 176.2C392.3 164.3 431.7 141.7 470.8 128.7C510 115.7 549 112.3 588.2 115.5C627.3 118.7 666.7 128.3 706 129.2C745.3 130 784.7 122 823.8 130C863 138 902 162 941.2 169.5C980.3 177 1019.7 168 1058.8 161.3C1098 154.7 1137 150.3 1176.2 150.2C1215.3 150 1254.7 154 1294 151.8C1333.3 149.7 1372.7 141.3 1411.8 138.3C1451 135.3 1490 137.7 1529.2 137.7C1568.3 137.7 1607.7 135.3 1647 143.5C1686.3 151.7 1725.7 170.3 1764.8 169.7C1804 169 1843 149 1882.2 135.5C1921.3 122 1960.7 115 1980.3 111.5L2000 108L2000 301L1980.3 301C1960.7 301 1921.3 301 1882.2 301C1843 301 1804 301 1764.8 301C1725.7 301 1686.3 301 1647 301C1607.7 301 1568.3 301 1529.2 301C1490 301 1451 301 1411.8 301C1372.7 301 1333.3 301 1294 301C1254.7 301 1215.3 301 1176.2 301C1137 301 1098 301 1058.8 301C1019.7 301 980.3 301 941.2 301C902 301 863 301 823.8 301C784.7 301 745.3 301 706 301C666.7 301 627.3 301 588.2 301C549 301 510 301 470.8 301C431.7 301 392.3 301 353 301C313.7 301 274.3 301 235.2 301C196 301 157 301 117.8 301C78.7 301 39.3 301 19.7 301L0 301Z" fill="#a4d0ff" stroke-linecap="round" stroke-linejoin="miter"></path></svg>