<svg id="visual" viewBox="0 240 2000 400" width="2000" height="800" xmlns="http://www.w3.org/2000/svg" xmlns:xlink="http://www.w3.org/1999/xlink" version="1.1"><rect x="0" y="0" width="2000" height="800" fill="#2E2E2E"></rect><path d="M0 259L47.7 264.8C95.3 270.7 190.7 282.3 285.8 271.8C381 261.3 476 228.7 571.2 220.7C666.3 212.7 761.7 229.3 857 240.8C952.3 252.3 1047.7 258.7 1143 250.7C1238.3 242.7 1333.7 220.3 1428.8 217.3C1524 214.3 1619 230.7 1714.2 243.7C1809.3 256.7 1904.7 266.3 1952.3 271.2L2000 276L2000 0L1952.3 0C1904.7 0 1809.3 0 1714.2 0C1619 0 1524 0 1428.8 0C1333.7 0 1238.3 0 1143 0C1047.7 0 952.3 0 857 0C761.7 0 666.3 0 571.2 0C476 0 381 0 285.8 0C190.7 0 95.3 0 47.7 0L0 0Z" fill="#dceeff"></path><path d="M0 172L47.7 181C95.3 190 190.7 208 285.8 220.8C381 233.7 476 241.3 571.2 246.3C666.3 251.3 761.7 253.7 857 235.7C952.3 217.7 1047.7 179.3 1143 172.2C1238.3 165 1333.7 189 1428.8 190C1524 191 1619 169 1714.2 159.2C1809.3 149.3 1904.7 151.7 1952.3 152.8L2000 154L2000 0L1952.3 0C1904.7 0 1809.3 0 1714.2 0C1619 0 1524 0 1428.8 0C1333.7 0 1238.3 0 1143 0C1047.7 0 952.3 0 857 0C761.7 0 666.3 0 571.2 0C476 0 381 0 285.8 0C190.7 0 95.3 0 47.7 0L0 0Z" fill="#a4d0ff"></path><path d="M0 170L47.7 169.7C95.3 169.3 190.7 168.7 285.8 158.7C381 148.7 476 129.3 571.2 132.2C666.3 135 761.7 160 857 161C952.3 162 1047.7 139 1143 129.5C1238.3 120 1333.7 124 1428.8 125.7C1524 127.3 1619 126.7 1714.2 135.5C1809.3 144.3 1904.7 162.7 1952.3 171.8L2000 181L2000 0L1952.3 0C1904.7 0 1809.3 0 1714.2 0C1619 0 1524 0 1428.8 0C1333.7 0 1238.3 0 1143 0C1047.7 0 952.3 0 857 0C761.7 0 666.3 0 571.2 0C476 0 381 0 285.8 0C190.7 0 95.3 0 47.7 0L0 0Z" fill="#6cb0ff"></path><path d="M0 40L47.7 44.3C95.3 48.7 190.7 57.3 285.8 61.3C381 65.3 476 64.7 571.2 70C666.3 75.3 761.7 86.7 857 84.5C952.3 82.3 1047.7 66.7 1143 59C1238.3 51.3 1333.7 51.7 1428.8 62.5C1524 73.3 1619 94.7 1714.2 101.3C1809.3 108 1904.7 100 1952.3 96L2000 92L2000 0L1952.3 0C1904.7 0 1809.3 0 1714.2 0C1619 0 1524 0 1428.8 0C1333.7 0 1238.3 0 1143 0C1047.7 0 952.3 0 857 0C761.7 0 666.3 0 571.2 0C476 0 381 0 285.8 0C190.7 0 95.3 0 47.7 0L0 0Z" fill="#2d8eff"></path></svg>