<svg id="visual" viewBox="0 0 2000 800" width="2000" height="800" xmlns="http://www.w3.org/2000/svg" xmlns:xlink="http://www.w3.org/1999/xlink" version="1.1"><rect x="0" y="0" width="2000" height="800" fill="#2E2E2E"></rect><path d="M0 490L47.7 505.2C95.3 520.3 190.7 550.7 285.8 554.5C381 558.3 476 535.7 571.2 520.8C666.3 506 761.7 499 857 507.8C952.3 516.7 1047.7 541.3 1143 558C1238.3 574.7 1333.7 583.3 1428.8 570.7C1524 558 1619 524 1714.2 506.3C1809.3 488.7 1904.7 487.3 1952.3 486.7L2000 486L2000 801L1952.3 801C1904.7 801 1809.3 801 1714.2 801C1619 801 1524 801 1428.8 801C1333.7 801 1238.3 801 1143 801C1047.7 801 952.3 801 857 801C761.7 801 666.3 801 571.2 801C476 801 381 801 285.8 801C190.7 801 95.3 801 47.7 801L0 801Z" fill="#dceeff"></path><path d="M0 606L47.7 595.7C95.3 585.3 190.7 564.7 285.8 555.5C381 546.3 476 548.7 571.2 560.3C666.3 572 761.7 593 857 596.3C952.3 599.7 1047.7 585.3 1143 584.3C1238.3 583.3 1333.7 595.7 1428.8 594.5C1524 593.3 1619 578.7 1714.2 586.3C1809.3 594 1904.7 624 1952.3 639L2000 654L2000 801L1952.3 801C1904.7 801 1809.3 801 1714.2 801C1619 801 1524 801 1428.8 801C1333.7 801 1238.3 801 1143 801C1047.7 801 952.3 801 857 801C761.7 801 666.3 801 571.2 801C476 801 381 801 285.8 801C190.7 801 95.3 801 47.7 801L0 801Z" fill="#a4d0ff"></path><path d="M0 648L47.7 647.3C95.3 646.7 190.7 645.3 285.8 645.8C381 646.3 476 648.7 571.2 643.2C666.3 637.7 761.7 624.3 857 632.5C952.3 640.7 1047.7 670.3 1143 670C1238.3 669.7 1333.7 639.3 1428.8 628.2C1524 617 1619 625 1714.2 628C1809.3 631 1904.7 629 1952.3 628L2000 627L2000 801L1952.3 801C1904.7 801 1809.3 801 1714.2 801C1619 801 1524 801 1428.8 801C1333.7 801 1238.3 801 1143 801C1047.7 801 952.3 801 857 801C761.7 801 666.3 801 571.2 801C476 801 381 801 285.8 801C190.7 801 95.3 801 47.7 801L0 801Z" fill="#6cb0ff"></path><path d="M0 736L47.7 727.7C95.3 719.3 190.7 702.7 285.8 702.7C381 702.7 476 719.3 571.2 722.8C666.3 726.3 761.7 716.7 857 707.8C952.3 699 1047.7 691 1143 688.2C1238.3 685.3 1333.7 687.7 1428.8 691.7C1524 695.7 1619 701.3 1714.2 707.3C1809.3 713.3 1904.7 719.7 1952.3 722.8L2000 726L2000 801L1952.3 801C1904.7 801 1809.3 801 1714.2 801C1619 801 1524 801 1428.8 801C1333.7 801 1238.3 801 1143 801C1047.7 801 952.3 801 857 801C761.7 801 666.3 801 571.2 801C476 801 381 801 285.8 801C190.7 801 95.3 801 47.7 801L0 801Z" fill="#2d8eff"></path></svg>