<svg id="visual" viewBox="0 0 2000 200" width="2000" height="200" xmlns="http://www.w3.org/2000/svg" xmlns:xlink="http://www.w3.org/1999/xlink" version="1.1"><rect x="0" y="0" width="2000" height="200" fill="#2E2E2E"></rect><path d="M0 110L19.7 111.8C39.3 113.7 78.7 117.3 117.8 111C157 104.7 196 88.3 235.2 87.3C274.3 86.3 313.7 100.7 353 103.8C392.3 107 431.7 99 470.8 96C510 93 549 95 588.2 96.7C627.3 98.3 666.7 99.7 706 104.3C745.3 109 784.7 117 823.8 120.2C863 123.3 902 121.7 941.2 114C980.3 106.3 1019.7 92.7 1058.8 92.8C1098 93 1137 107 1176.2 105.5C1215.3 104 1254.7 87 1294 80.3C1333.3 73.7 1372.7 77.3 1411.8 85C1451 92.7 1490 104.3 1529.2 108.2C1568.3 112 1607.7 108 1647 109.8C1686.3 111.7 1725.7 119.3 1764.8 117.2C1804 115 1843 103 1882.2 102C1921.3 101 1960.7 111 1980.3 116L2000 121" fill="none" stroke-linecap="round" stroke-linejoin="miter" stroke="#a4d0ff" stroke-width="27"></path></svg>