<svg id="visual" viewBox="0 0 2000 200" width="2000" height="200" xmlns="http://www.w3.org/2000/svg" xmlns:xlink="http://www.w3.org/1999/xlink" version="1.1"><rect x="0" y="0" width="2000" height="200" fill="#2E2E2E"></rect><path d="M0 89L19.7 86.2C39.3 83.3 78.7 77.7 117.8 84C157 90.3 196 108.7 235.2 117.5C274.3 126.3 313.7 125.7 353 117.7C392.3 109.7 431.7 94.3 470.8 85.5C510 76.7 549 74.3 588.2 76.5C627.3 78.7 666.7 85.3 706 85.8C745.3 86.3 784.7 80.7 823.8 85.8C863 91 902 107 941.2 112.2C980.3 117.3 1019.7 111.7 1058.8 107.3C1098 103 1137 100 1176.2 99.8C1215.3 99.7 1254.7 102.3 1294 100.8C1333.3 99.3 1372.7 93.7 1411.8 91.7C1451 89.7 1490 91.3 1529.2 91.3C1568.3 91.3 1607.7 89.7 1647 95.2C1686.3 100.7 1725.7 113.3 1764.8 112.8C1804 112.3 1843 98.7 1882.2 89.7C1921.3 80.7 1960.7 76.3 1980.3 74.2L2000 72" fill="none" stroke-linecap="round" stroke-linejoin="miter" stroke="#a4d0ff" stroke-width="27"></path></svg>