<svg id="visual" viewBox="0 0 2000 200" width="2000" height="200" xmlns="http://www.w3.org/2000/svg" xmlns:xlink="http://www.w3.org/1999/xlink" version="1.1"><rect x="0" y="0" width="2000" height="200" fill="#2E2E2E"></rect><path d="M0 110L19.7 103.2C39.3 96.3 78.7 82.7 117.8 78.8C157 75 196 81 235.2 86.2C274.3 91.3 313.7 95.7 353 101.5C392.3 107.3 431.7 114.7 470.8 115.7C510 116.7 549 111.3 588.2 112.2C627.3 113 666.7 120 706 123.2C745.3 126.3 784.7 125.7 823.8 119C863 112.3 902 99.7 941.2 97.3C980.3 95 1019.7 103 1058.8 103C1098 103 1137 95 1176.2 91C1215.3 87 1254.7 87 1294 88.5C1333.3 90 1372.7 93 1411.8 99C1451 105 1490 114 1529.2 115.8C1568.3 117.7 1607.7 112.3 1647 104.7C1686.3 97 1725.7 87 1764.8 90.5C1804 94 1843 111 1882.2 118.8C1921.3 126.7 1960.7 125.3 1980.3 124.7L2000 124" fill="none" stroke-linecap="round" stroke-linejoin="miter" stroke="#a4d0ff" stroke-width="27"></path></svg>